<?xml version="1.0" encoding="UTF-8"?>
<!DOCTYPE svg PUBLIC "-//W3C//DTD SVG 1.1//EN" "http://www.w3.org/Graphics/SVG/1.1/DTD/svg11.dtd">
<svg xmlns="http://www.w3.org/2000/svg" version="1.1" width="208px" height="208px" style="shape-rendering:geometricPrecision; text-rendering:geometricPrecision; image-rendering:optimizeQuality; fill-rule:evenodd; clip-rule:evenodd" xmlns:xlink="http://www.w3.org/1999/xlink">
<g><path style="opacity:1" fill="#1a7a3d" d="M -0.5,-0.5 C 4.83333,-0.5 10.1667,-0.5 15.5,-0.5C 15.5,4.83333 15.5,10.1667 15.5,15.5C 12.8333,15.5 10.1667,15.5 7.5,15.5C 7.5,12.8333 7.5,10.1667 7.5,7.5C 4.83333,7.5 2.16667,7.5 -0.5,7.5C -0.5,4.83333 -0.5,2.16667 -0.5,-0.5 Z"/></g>
<g><path style="opacity:1" fill="#4fbb33" d="M 15.5,-0.5 C 23.5,-0.5 31.5,-0.5 39.5,-0.5C 39.5,2.16667 39.5,4.83333 39.5,7.5C 39.5,10.1667 39.5,12.8333 39.5,15.5C 36.8333,15.5 34.1667,15.5 31.5,15.5C 31.5,12.8333 31.5,10.1667 31.5,7.5C 28.8333,7.5 26.1667,7.5 23.5,7.5C 23.5,10.1667 23.5,12.8333 23.5,15.5C 20.8333,15.5 18.1667,15.5 15.5,15.5C 15.5,10.1667 15.5,4.83333 15.5,-0.5 Z"/></g>
<g><path style="opacity:1" fill="#14a02d" d="M 39.5,-0.5 C 44.8333,-0.5 50.1667,-0.5 55.5,-0.5C 55.5,4.83333 55.5,10.1667 55.5,15.5C 52.8333,15.5 50.1667,15.5 47.5,15.5C 47.5,12.8333 47.5,10.1667 47.5,7.5C 44.8333,7.5 42.1667,7.5 39.5,7.5C 39.5,4.83333 39.5,2.16667 39.5,-0.5 Z"/></g>
<g><path style="opacity:1" fill="#1a7a3d" d="M 55.5,-0.5 C 58.1667,-0.5 60.8333,-0.5 63.5,-0.5C 63.5,7.5 63.5,15.5 63.5,23.5C 60.8333,23.5 58.1667,23.5 55.5,23.5C 55.5,26.1667 55.5,28.8333 55.5,31.5C 52.8333,31.5 50.1667,31.5 47.5,31.5C 47.5,34.1667 47.5,36.8333 47.5,39.5C 44.8333,39.5 42.1667,39.5 39.5,39.5C 39.5,44.8333 39.5,50.1667 39.5,55.5C 39.5,60.8333 39.5,66.1667 39.5,71.5C 42.1667,71.5 44.8333,71.5 47.5,71.5C 50.1667,71.5 52.8333,71.5 55.5,71.5C 55.5,74.1667 55.5,76.8333 55.5,79.5C 52.8333,79.5 50.1667,79.5 47.5,79.5C 47.5,82.1667 47.5,84.8333 47.5,87.5C 44.8333,87.5 42.1667,87.5 39.5,87.5C 36.8333,87.5 34.1667,87.5 31.5,87.5C 31.5,84.8333 31.5,82.1667 31.5,79.5C 28.8333,79.5 26.1667,79.5 23.5,79.5C 23.5,76.8333 23.5,74.1667 23.5,71.5C 26.1667,71.5 28.8333,71.5 31.5,71.5C 31.5,68.8333 31.5,66.1667 31.5,63.5C 28.8333,63.5 26.1667,63.5 23.5,63.5C 23.5,58.1667 23.5,52.8333 23.5,47.5C 26.1667,47.5 28.8333,47.5 31.5,47.5C 31.5,44.8333 31.5,42.1667 31.5,39.5C 28.8333,39.5 26.1667,39.5 23.5,39.5C 23.5,36.8333 23.5,34.1667 23.5,31.5C 20.8333,31.5 18.1667,31.5 15.5,31.5C 15.5,26.1667 15.5,20.8333 15.5,15.5C 18.1667,15.5 20.8333,15.5 23.5,15.5C 23.5,18.1667 23.5,20.8333 23.5,23.5C 26.1667,23.5 28.8333,23.5 31.5,23.5C 31.5,26.1667 31.5,28.8333 31.5,31.5C 34.1667,31.5 36.8333,31.5 39.5,31.5C 39.5,28.8333 39.5,26.1667 39.5,23.5C 39.5,20.8333 39.5,18.1667 39.5,15.5C 39.5,12.8333 39.5,10.1667 39.5,7.5C 42.1667,7.5 44.8333,7.5 47.5,7.5C 47.5,10.1667 47.5,12.8333 47.5,15.5C 50.1667,15.5 52.8333,15.5 55.5,15.5C 55.5,10.1667 55.5,4.83333 55.5,-0.5 Z"/></g>
<g><path style="opacity:1" fill="#18ba17" d="M 63.5,-0.5 C 66.1667,-0.5 68.8333,-0.5 71.5,-0.5C 71.5,4.83333 71.5,10.1667 71.5,15.5C 71.5,18.1667 71.5,20.8333 71.5,23.5C 68.8333,23.5 66.1667,23.5 63.5,23.5C 63.5,15.5 63.5,7.5 63.5,-0.5 Z"/></g>
<g><path style="opacity:1" fill="#14a02d" d="M 71.5,-0.5 C 74.1667,-0.5 76.8333,-0.5 79.5,-0.5C 79.5,2.16667 79.5,4.83333 79.5,7.5C 79.5,10.1667 79.5,12.8333 79.5,15.5C 76.8333,15.5 74.1667,15.5 71.5,15.5C 71.5,10.1667 71.5,4.83333 71.5,-0.5 Z"/></g>
<g><path style="opacity:1" fill="#1a7a3d" d="M 79.5,-0.5 C 82.1667,-0.5 84.8333,-0.5 87.5,-0.5C 87.5,2.16667 87.5,4.83333 87.5,7.5C 84.8333,7.5 82.1667,7.5 79.5,7.5C 79.5,4.83333 79.5,2.16667 79.5,-0.5 Z"/></g>
<g><path style="opacity:1" fill="#18ba17" d="M 87.5,-0.5 C 90.1667,-0.5 92.8333,-0.5 95.5,-0.5C 95.5,2.16667 95.5,4.83333 95.5,7.5C 92.8333,7.5 90.1667,7.5 87.5,7.5C 87.5,4.83333 87.5,2.16667 87.5,-0.5 Z"/></g>
<g><path style="opacity:1" fill="#14a02d" d="M 95.5,-0.5 C 98.1667,-0.5 100.833,-0.5 103.5,-0.5C 103.5,2.16667 103.5,4.83333 103.5,7.5C 100.833,7.5 98.1667,7.5 95.5,7.5C 95.5,4.83333 95.5,2.16667 95.5,-0.5 Z"/></g>
<g><path style="opacity:1" fill="#18ba17" d="M 103.5,-0.5 C 106.167,-0.5 108.833,-0.5 111.5,-0.5C 111.5,2.16667 111.5,4.83333 111.5,7.5C 111.5,10.1667 111.5,12.8333 111.5,15.5C 108.833,15.5 106.167,15.5 103.5,15.5C 103.5,12.8333 103.5,10.1667 103.5,7.5C 103.5,4.83333 103.5,2.16667 103.5,-0.5 Z"/></g>
<g><path style="opacity:1" fill="#1a7a3d" d="M 111.5,-0.5 C 116.833,-0.5 122.167,-0.5 127.5,-0.5C 127.5,2.16667 127.5,4.83333 127.5,7.5C 127.5,10.1667 127.5,12.8333 127.5,15.5C 130.167,15.5 132.833,15.5 135.5,15.5C 135.5,12.8333 135.5,10.1667 135.5,7.5C 135.5,4.83333 135.5,2.16667 135.5,-0.5C 138.167,-0.5 140.833,-0.5 143.5,-0.5C 143.5,2.16667 143.5,4.83333 143.5,7.5C 143.5,12.8333 143.5,18.1667 143.5,23.5C 146.167,23.5 148.833,23.5 151.5,23.5C 151.5,20.8333 151.5,18.1667 151.5,15.5C 154.167,15.5 156.833,15.5 159.5,15.5C 159.5,12.8333 159.5,10.1667 159.5,7.5C 159.5,4.83333 159.5,2.16667 159.5,-0.5C 162.167,-0.5 164.833,-0.5 167.5,-0.5C 167.5,2.16667 167.5,4.83333 167.5,7.5C 170.167,7.5 172.833,7.5 175.5,7.5C 175.5,4.83333 175.5,2.16667 175.5,-0.5C 178.167,-0.5 180.833,-0.5 183.5,-0.5C 183.5,2.16667 183.5,4.83333 183.5,7.5C 186.167,7.5 188.833,7.5 191.5,7.5C 191.5,4.83333 191.5,2.16667 191.5,-0.5C 196.833,-0.5 202.167,-0.5 207.5,-0.5C 207.5,4.83333 207.5,10.1667 207.5,15.5C 204.833,15.5 202.167,15.5 199.5,15.5C 199.5,23.5 199.5,31.5 199.5,39.5C 202.167,39.5 204.833,39.5 207.5,39.5C 207.5,60.8333 207.5,82.1667 207.5,103.5C 204.833,103.5 202.167,103.5 199.5,103.5C 199.5,106.167 199.5,108.833 199.5,111.5C 202.167,111.5 204.833,111.5 207.5,111.5C 207.5,122.167 207.5,132.833 207.5,143.5C 204.833,143.5 202.167,143.5 199.5,143.5C 199.5,151.5 199.5,159.5 199.5,167.5C 202.167,167.5 204.833,167.5 207.5,167.5C 207.5,172.833 207.5,178.167 207.5,183.5C 204.833,183.5 202.167,183.5 199.5,183.5C 199.5,191.5 199.5,199.5 199.5,207.5C 196.833,207.5 194.167,207.5 191.5,207.5C 191.5,202.167 191.5,196.833 191.5,191.5C 188.833,191.5 186.167,191.5 183.5,191.5C 180.833,191.5 178.167,191.5 175.5,191.5C 175.5,188.833 175.5,186.167 175.5,183.5C 178.167,183.5 180.833,183.5 183.5,183.5C 183.5,180.833 183.5,178.167 183.5,175.5C 180.833,175.5 178.167,175.5 175.5,175.5C 175.5,172.833 175.5,170.167 175.5,167.5C 178.167,167.5 180.833,167.5 183.5,167.5C 183.5,164.833 183.5,162.167 183.5,159.5C 183.5,156.833 183.5,154.167 183.5,151.5C 186.167,151.5 188.833,151.5 191.5,151.5C 191.5,148.833 191.5,146.167 191.5,143.5C 186.167,143.5 180.833,143.5 175.5,143.5C 175.5,148.833 175.5,154.167 175.5,159.5C 172.833,159.5 170.167,159.5 167.5,159.5C 167.5,162.167 167.5,164.833 167.5,167.5C 164.833,167.5 162.167,167.5 159.5,167.5C 156.833,167.5 154.167,167.5 151.5,167.5C 151.5,170.167 151.5,172.833 151.5,175.5C 148.833,175.5 146.167,175.5 143.5,175.5C 140.833,175.5 138.167,175.5 135.5,175.5C 135.5,170.167 135.5,164.833 135.5,159.5C 132.833,159.5 130.167,159.5 127.5,159.5C 127.5,164.833 127.5,170.167 127.5,175.5C 122.167,175.5 116.833,175.5 111.5,175.5C 111.5,170.167 111.5,164.833 111.5,159.5C 111.5,156.833 111.5,154.167 111.5,151.5C 114.167,151.5 116.833,151.5 119.5,151.5C 122.167,151.5 124.833,151.5 127.5,151.5C 130.167,151.5 132.833,151.5 135.5,151.5C 138.167,151.5 140.833,151.5 143.5,151.5C 143.5,154.167 143.5,156.833 143.5,159.5C 148.833,159.5 154.167,159.5 159.5,159.5C 159.5,156.833 159.5,154.167 159.5,151.5C 162.167,151.5 164.833,151.5 167.5,151.5C 167.5,146.167 167.5,140.833 167.5,135.5C 172.833,135.5 178.167,135.5 183.5,135.5C 183.5,130.167 183.5,124.833 183.5,119.5C 178.167,119.5 172.833,119.5 167.5,119.5C 167.5,122.167 167.5,124.833 167.5,127.5C 164.833,127.5 162.167,127.5 159.5,127.5C 159.5,122.167 159.5,116.833 159.5,111.5C 162.167,111.5 164.833,111.5 167.5,111.5C 167.5,106.167 167.5,100.833 167.5,95.5C 170.167,95.5 172.833,95.5 175.5,95.5C 178.167,95.5 180.833,95.5 183.5,95.5C 183.5,100.833 183.5,106.167 183.5,111.5C 186.167,111.5 188.833,111.5 191.5,111.5C 191.5,106.167 191.5,100.833 191.5,95.5C 194.167,95.5 196.833,95.5 199.5,95.5C 199.5,92.8333 199.5,90.1667 199.5,87.5C 196.833,87.5 194.167,87.5 191.5,87.5C 191.5,84.8333 191.5,82.1667 191.5,79.5C 191.5,74.1667 191.5,68.8333 191.5,63.5C 188.833,63.5 186.167,63.5 183.5,63.5C 183.5,68.8333 183.5,74.1667 183.5,79.5C 180.833,79.5 178.167,79.5 175.5,79.5C 175.5,76.8333 175.5,74.1667 175.5,71.5C 172.833,71.5 170.167,71.5 167.5,71.5C 167.5,68.8333 167.5,66.1667 167.5,63.5C 164.833,63.5 162.167,63.5 159.5,63.5C 159.5,60.8333 159.5,58.1667 159.5,55.5C 162.167,55.5 164.833,55.5 167.5,55.5C 167.5,50.1667 167.5,44.8333 167.5,39.5C 167.5,36.8333 167.5,34.1667 167.5,31.5C 162.167,31.5 156.833,31.5 151.5,31.5C 151.5,42.1667 151.5,52.8333 151.5,63.5C 148.833,63.5 146.167,63.5 143.5,63.5C 143.5,60.8333 143.5,58.1667 143.5,55.5C 143.5,50.1667 143.5,44.8333 143.5,39.5C 143.5,36.8333 143.5,34.1667 143.5,31.5C 138.167,31.5 132.833,31.5 127.5,31.5C 127.5,36.8333 127.5,42.1667 127.5,47.5C 130.167,47.5 132.833,47.5 135.5,47.5C 135.5,50.1667 135.5,52.8333 135.5,55.5C 132.833,55.5 130.167,55.5 127.5,55.5C 124.833,55.5 122.167,55.5 119.5,55.5C 119.5,58.1667 119.5,60.8333 119.5,63.5C 116.833,63.5 114.167,63.5 111.5,63.5C 111.5,60.8333 111.5,58.1667 111.5,55.5C 108.833,55.5 106.167,55.5 103.5,55.5C 103.5,52.8333 103.5,50.1667 103.5,47.5C 98.1667,47.5 92.8333,47.5 87.5,47.5C 87.5,52.8333 87.5,58.1667 87.5,63.5C 84.8333,63.5 82.1667,63.5 79.5,63.5C 79.5,60.8333 79.5,58.1667 79.5,55.5C 74.1667,55.5 68.8333,55.5 63.5,55.5C 63.5,58.1667 63.5,60.8333 63.5,63.5C 58.1667,63.5 52.8333,63.5 47.5,63.5C 47.5,60.8333 47.5,58.1667 47.5,55.5C 50.1667,55.5 52.8333,55.5 55.5,55.5C 55.5,52.8333 55.5,50.1667 55.5,47.5C 55.5,42.1667 55.5,36.8333 55.5,31.5C 60.8333,31.5 66.1667,31.5 71.5,31.5C 71.5,36.8333 71.5,42.1667 71.5,47.5C 74.1667,47.5 76.8333,47.5 79.5,47.5C 79.5,42.1667 79.5,36.8333 79.5,31.5C 82.1667,31.5 84.8333,31.5 87.5,31.5C 90.1667,31.5 92.8333,31.5 95.5,31.5C 95.5,34.1667 95.5,36.8333 95.5,39.5C 98.1667,39.5 100.833,39.5 103.5,39.5C 106.167,39.5 108.833,39.5 111.5,39.5C 111.5,42.1667 111.5,44.8333 111.5,47.5C 114.167,47.5 116.833,47.5 119.5,47.5C 119.5,42.1667 119.5,36.8333 119.5,31.5C 114.167,31.5 108.833,31.5 103.5,31.5C 103.5,28.8333 103.5,26.1667 103.5,23.5C 103.5,20.8333 103.5,18.1667 103.5,15.5C 106.167,15.5 108.833,15.5 111.5,15.5C 111.5,18.1667 111.5,20.8333 111.5,23.5C 114.167,23.5 116.833,23.5 119.5,23.5C 119.5,18.1667 119.5,12.8333 119.5,7.5C 116.833,7.5 114.167,7.5 111.5,7.5C 111.5,4.83333 111.5,2.16667 111.5,-0.5 Z"/></g>
<g><path style="opacity:1" fill="#18ba17" d="M 127.5,-0.5 C 130.167,-0.5 132.833,-0.5 135.5,-0.5C 135.5,2.16667 135.5,4.83333 135.5,7.5C 132.833,7.5 130.167,7.5 127.5,7.5C 127.5,4.83333 127.5,2.16667 127.5,-0.5 Z"/></g>
<g><path style="opacity:1" fill="#14a02d" d="M 143.5,-0.5 C 146.167,-0.5 148.833,-0.5 151.5,-0.5C 151.5,2.16667 151.5,4.83333 151.5,7.5C 148.833,7.5 146.167,7.5 143.5,7.5C 143.5,4.83333 143.5,2.16667 143.5,-0.5 Z"/></g>
<g><path style="opacity:1" fill="#18ba17" d="M 151.5,-0.5 C 154.167,-0.5 156.833,-0.5 159.5,-0.5C 159.5,2.16667 159.5,4.83333 159.5,7.5C 156.833,7.5 154.167,7.5 151.5,7.5C 151.5,4.83333 151.5,2.16667 151.5,-0.5 Z"/></g>
<g><path style="opacity:1" fill="#14a02d" d="M 167.5,-0.5 C 170.167,-0.5 172.833,-0.5 175.5,-0.5C 175.5,2.16667 175.5,4.83333 175.5,7.5C 172.833,7.5 170.167,7.5 167.5,7.5C 167.5,4.83333 167.5,2.16667 167.5,-0.5 Z"/></g>
<g><path style="opacity:1" fill="#14a02d" d="M 183.5,-0.5 C 186.167,-0.5 188.833,-0.5 191.5,-0.5C 191.5,2.16667 191.5,4.83333 191.5,7.5C 188.833,7.5 186.167,7.5 183.5,7.5C 183.5,4.83333 183.5,2.16667 183.5,-0.5 Z"/></g>
<g><path style="opacity:1" fill="#18ba17" d="M -0.5,7.5 C 2.16667,7.5 4.83333,7.5 7.5,7.5C 7.5,10.1667 7.5,12.8333 7.5,15.5C 7.5,20.8333 7.5,26.1667 7.5,31.5C 4.83333,31.5 2.16667,31.5 -0.5,31.5C -0.5,23.5 -0.5,15.5 -0.5,7.5 Z"/></g>
<g><path style="opacity:1" fill="#18ba17" d="M 39.5,15.5 C 39.5,18.1667 39.5,20.8333 39.5,23.5C 36.8333,23.5 34.1667,23.5 31.5,23.5C 28.8333,23.5 26.1667,23.5 23.5,23.5C 23.5,20.8333 23.5,18.1667 23.5,15.5C 23.5,12.8333 23.5,10.1667 23.5,7.5C 26.1667,7.5 28.8333,7.5 31.5,7.5C 31.5,10.1667 31.5,12.8333 31.5,15.5C 34.1667,15.5 36.8333,15.5 39.5,15.5 Z"/></g>
<g><path style="opacity:1" fill="#1a7a3d" d="M 87.5,7.5 C 90.1667,7.5 92.8333,7.5 95.5,7.5C 98.1667,7.5 100.833,7.5 103.5,7.5C 103.5,10.1667 103.5,12.8333 103.5,15.5C 98.1667,15.5 92.8333,15.5 87.5,15.5C 87.5,12.8333 87.5,10.1667 87.5,7.5 Z"/></g>
<g><path style="opacity:1" fill="#14a02d" d="M 111.5,7.5 C 114.167,7.5 116.833,7.5 119.5,7.5C 119.5,12.8333 119.5,18.1667 119.5,23.5C 116.833,23.5 114.167,23.5 111.5,23.5C 111.5,20.8333 111.5,18.1667 111.5,15.5C 111.5,12.8333 111.5,10.1667 111.5,7.5 Z"/></g>
<g><path style="opacity:1" fill="#14a02d" d="M 127.5,7.5 C 130.167,7.5 132.833,7.5 135.5,7.5C 135.5,10.1667 135.5,12.8333 135.5,15.5C 132.833,15.5 130.167,15.5 127.5,15.5C 127.5,12.8333 127.5,10.1667 127.5,7.5 Z"/></g>
<g><path style="opacity:1" fill="#18ba17" d="M 143.5,7.5 C 146.167,7.5 148.833,7.5 151.5,7.5C 151.5,10.1667 151.5,12.8333 151.5,15.5C 151.5,18.1667 151.5,20.8333 151.5,23.5C 148.833,23.5 146.167,23.5 143.5,23.5C 143.5,18.1667 143.5,12.8333 143.5,7.5 Z"/></g>
<g><path style="opacity:1" fill="#14a02d" d="M 151.5,7.5 C 154.167,7.5 156.833,7.5 159.5,7.5C 159.5,10.1667 159.5,12.8333 159.5,15.5C 156.833,15.5 154.167,15.5 151.5,15.5C 151.5,12.8333 151.5,10.1667 151.5,7.5 Z"/></g>
<g><path style="opacity:1" fill="#14a02d" d="M 7.5,15.5 C 10.1667,15.5 12.8333,15.5 15.5,15.5C 15.5,20.8333 15.5,26.1667 15.5,31.5C 12.8333,31.5 10.1667,31.5 7.5,31.5C 7.5,26.1667 7.5,20.8333 7.5,15.5 Z"/></g>
<g><path style="opacity:1" fill="#47bb2e" d="M 79.5,7.5 C 82.1667,7.5 84.8333,7.5 87.5,7.5C 87.5,10.1667 87.5,12.8333 87.5,15.5C 87.5,20.8333 87.5,26.1667 87.5,31.5C 84.8333,31.5 82.1667,31.5 79.5,31.5C 76.8333,31.5 74.1667,31.5 71.5,31.5C 66.1667,31.5 60.8333,31.5 55.5,31.5C 55.5,28.8333 55.5,26.1667 55.5,23.5C 58.1667,23.5 60.8333,23.5 63.5,23.5C 66.1667,23.5 68.8333,23.5 71.5,23.5C 71.5,20.8333 71.5,18.1667 71.5,15.5C 74.1667,15.5 76.8333,15.5 79.5,15.5C 79.5,12.8333 79.5,10.1667 79.5,7.5 Z"/></g>
<g><path style="opacity:1" fill="#14a02d" d="M 87.5,15.5 C 92.8333,15.5 98.1667,15.5 103.5,15.5C 103.5,18.1667 103.5,20.8333 103.5,23.5C 100.833,23.5 98.1667,23.5 95.5,23.5C 95.5,26.1667 95.5,28.8333 95.5,31.5C 92.8333,31.5 90.1667,31.5 87.5,31.5C 87.5,26.1667 87.5,20.8333 87.5,15.5 Z"/></g>
<g><path style="opacity:1" fill="#59c134" d="M 175.5,23.5 C 172.833,23.5 170.167,23.5 167.5,23.5C 167.5,20.8333 167.5,18.1667 167.5,15.5C 170.167,15.5 172.833,15.5 175.5,15.5C 175.5,18.1667 175.5,20.8333 175.5,23.5 Z"/></g>
<g><path style="opacity:1" fill="#59c134" d="M 207.5,15.5 C 207.5,23.5 207.5,31.5 207.5,39.5C 204.833,39.5 202.167,39.5 199.5,39.5C 199.5,31.5 199.5,23.5 199.5,15.5C 202.167,15.5 204.833,15.5 207.5,15.5 Z"/></g>
<g><path style="opacity:1" fill="#14a02d" d="M 31.5,23.5 C 34.1667,23.5 36.8333,23.5 39.5,23.5C 39.5,26.1667 39.5,28.8333 39.5,31.5C 36.8333,31.5 34.1667,31.5 31.5,31.5C 31.5,28.8333 31.5,26.1667 31.5,23.5 Z"/></g>
<g><path style="opacity:1" fill="#59c134" d="M 103.5,23.5 C 103.5,26.1667 103.5,28.8333 103.5,31.5C 103.5,34.1667 103.5,36.8333 103.5,39.5C 100.833,39.5 98.1667,39.5 95.5,39.5C 95.5,36.8333 95.5,34.1667 95.5,31.5C 95.5,28.8333 95.5,26.1667 95.5,23.5C 98.1667,23.5 100.833,23.5 103.5,23.5 Z"/></g>
<g><path style="opacity:1" fill="#46b532" d="M 175.5,23.5 C 178.167,23.5 180.833,23.5 183.5,23.5C 183.5,26.1667 183.5,28.8333 183.5,31.5C 186.167,31.5 188.833,31.5 191.5,31.5C 191.5,34.1667 191.5,36.8333 191.5,39.5C 188.833,39.5 186.167,39.5 183.5,39.5C 183.5,44.8333 183.5,50.1667 183.5,55.5C 180.833,55.5 178.167,55.5 175.5,55.5C 175.5,44.8333 175.5,34.1667 175.5,23.5 Z"/></g>
<g><path style="opacity:1" fill="#1a7a3d" d="M -0.5,31.5 C 2.16667,31.5 4.83333,31.5 7.5,31.5C 10.1667,31.5 12.8333,31.5 15.5,31.5C 15.5,34.1667 15.5,36.8333 15.5,39.5C 12.8333,39.5 10.1667,39.5 7.5,39.5C 7.5,44.8333 7.5,50.1667 7.5,55.5C 10.1667,55.5 12.8333,55.5 15.5,55.5C 15.5,58.1667 15.5,60.8333 15.5,63.5C 18.1667,63.5 20.8333,63.5 23.5,63.5C 23.5,66.1667 23.5,68.8333 23.5,71.5C 20.8333,71.5 18.1667,71.5 15.5,71.5C 15.5,82.1667 15.5,92.8333 15.5,103.5C 12.8333,103.5 10.1667,103.5 7.5,103.5C 7.5,100.833 7.5,98.1667 7.5,95.5C 4.83333,95.5 2.16667,95.5 -0.5,95.5C -0.5,92.8333 -0.5,90.1667 -0.5,87.5C 2.16667,87.5 4.83333,87.5 7.5,87.5C 7.5,79.5 7.5,71.5 7.5,63.5C 4.83333,63.5 2.16667,63.5 -0.5,63.5C -0.5,52.8333 -0.5,42.1667 -0.5,31.5 Z"/></g>
<g><path style="opacity:1" fill="#18ba17" d="M 15.5,31.5 C 18.1667,31.5 20.8333,31.5 23.5,31.5C 23.5,34.1667 23.5,36.8333 23.5,39.5C 20.8333,39.5 18.1667,39.5 15.5,39.5C 15.5,36.8333 15.5,34.1667 15.5,31.5 Z"/></g>
<g><path style="opacity:1" fill="#14a02d" d="M 55.5,31.5 C 55.5,36.8333 55.5,42.1667 55.5,47.5C 52.8333,47.5 50.1667,47.5 47.5,47.5C 47.5,44.8333 47.5,42.1667 47.5,39.5C 47.5,36.8333 47.5,34.1667 47.5,31.5C 50.1667,31.5 52.8333,31.5 55.5,31.5 Z"/></g>
<g><path style="opacity:1" fill="#14a02d" d="M 71.5,31.5 C 74.1667,31.5 76.8333,31.5 79.5,31.5C 79.5,36.8333 79.5,42.1667 79.5,47.5C 76.8333,47.5 74.1667,47.5 71.5,47.5C 71.5,42.1667 71.5,36.8333 71.5,31.5 Z"/></g>
<g><path style="opacity:1" fill="#14a02d" d="M 103.5,31.5 C 108.833,31.5 114.167,31.5 119.5,31.5C 119.5,36.8333 119.5,42.1667 119.5,47.5C 116.833,47.5 114.167,47.5 111.5,47.5C 111.5,44.8333 111.5,42.1667 111.5,39.5C 108.833,39.5 106.167,39.5 103.5,39.5C 103.5,36.8333 103.5,34.1667 103.5,31.5 Z"/></g>
<g><path style="opacity:1" fill="#14a02d" d="M 143.5,39.5 C 140.833,39.5 138.167,39.5 135.5,39.5C 135.5,42.1667 135.5,44.8333 135.5,47.5C 132.833,47.5 130.167,47.5 127.5,47.5C 127.5,42.1667 127.5,36.8333 127.5,31.5C 132.833,31.5 138.167,31.5 143.5,31.5C 143.5,34.1667 143.5,36.8333 143.5,39.5 Z"/></g>
<g><path style="opacity:1" fill="#18ba17" d="M 15.5,39.5 C 15.5,42.1667 15.5,44.8333 15.5,47.5C 15.5,50.1667 15.5,52.8333 15.5,55.5C 12.8333,55.5 10.1667,55.5 7.5,55.5C 7.5,50.1667 7.5,44.8333 7.5,39.5C 10.1667,39.5 12.8333,39.5 15.5,39.5 Z"/></g>
<g><path style="opacity:1" fill="#1a7a3d" d="M 15.5,39.5 C 18.1667,39.5 20.8333,39.5 23.5,39.5C 23.5,42.1667 23.5,44.8333 23.5,47.5C 20.8333,47.5 18.1667,47.5 15.5,47.5C 15.5,44.8333 15.5,42.1667 15.5,39.5 Z"/></g>
<g><path style="opacity:1" fill="#14a02d" d="M 23.5,39.5 C 26.1667,39.5 28.8333,39.5 31.5,39.5C 31.5,42.1667 31.5,44.8333 31.5,47.5C 28.8333,47.5 26.1667,47.5 23.5,47.5C 23.5,44.8333 23.5,42.1667 23.5,39.5 Z"/></g>
<g><path style="opacity:1" fill="#59c134" d="M 47.5,39.5 C 47.5,42.1667 47.5,44.8333 47.5,47.5C 50.1667,47.5 52.8333,47.5 55.5,47.5C 55.5,50.1667 55.5,52.8333 55.5,55.5C 52.8333,55.5 50.1667,55.5 47.5,55.5C 44.8333,55.5 42.1667,55.5 39.5,55.5C 39.5,50.1667 39.5,44.8333 39.5,39.5C 42.1667,39.5 44.8333,39.5 47.5,39.5 Z"/></g>
<g><path style="opacity:1" fill="#59c134" d="M 143.5,39.5 C 143.5,44.8333 143.5,50.1667 143.5,55.5C 140.833,55.5 138.167,55.5 135.5,55.5C 135.5,52.8333 135.5,50.1667 135.5,47.5C 135.5,44.8333 135.5,42.1667 135.5,39.5C 138.167,39.5 140.833,39.5 143.5,39.5 Z"/></g>
<g><path style="opacity:1" fill="#4bbc2f" d="M 167.5,39.5 C 164.833,39.5 162.167,39.5 159.5,39.5C 159.5,44.8333 159.5,50.1667 159.5,55.5C 159.5,58.1667 159.5,60.8333 159.5,63.5C 156.833,63.5 154.167,63.5 151.5,63.5C 151.5,52.8333 151.5,42.1667 151.5,31.5C 156.833,31.5 162.167,31.5 167.5,31.5C 167.5,34.1667 167.5,36.8333 167.5,39.5 Z"/></g>
<g><path style="opacity:1" fill="#14a02d" d="M 167.5,39.5 C 167.5,44.8333 167.5,50.1667 167.5,55.5C 164.833,55.5 162.167,55.5 159.5,55.5C 159.5,50.1667 159.5,44.8333 159.5,39.5C 162.167,39.5 164.833,39.5 167.5,39.5 Z"/></g>
<g><path style="opacity:1" fill="#14a02d" d="M 15.5,47.5 C 18.1667,47.5 20.8333,47.5 23.5,47.5C 23.5,52.8333 23.5,58.1667 23.5,63.5C 20.8333,63.5 18.1667,63.5 15.5,63.5C 15.5,60.8333 15.5,58.1667 15.5,55.5C 15.5,52.8333 15.5,50.1667 15.5,47.5 Z"/></g>
<g><path style="opacity:1" fill="#37b02f" d="M 119.5,63.5 C 119.5,68.8333 119.5,74.1667 119.5,79.5C 116.833,79.5 114.167,79.5 111.5,79.5C 111.5,76.8333 111.5,74.1667 111.5,71.5C 106.167,71.5 100.833,71.5 95.5,71.5C 95.5,68.8333 95.5,66.1667 95.5,63.5C 92.8333,63.5 90.1667,63.5 87.5,63.5C 87.5,58.1667 87.5,52.8333 87.5,47.5C 92.8333,47.5 98.1667,47.5 103.5,47.5C 103.5,50.1667 103.5,52.8333 103.5,55.5C 106.167,55.5 108.833,55.5 111.5,55.5C 111.5,58.1667 111.5,60.8333 111.5,63.5C 114.167,63.5 116.833,63.5 119.5,63.5 Z"/></g>
<g><path style="opacity:1" fill="#14a02d" d="M 39.5,55.5 C 42.1667,55.5 44.8333,55.5 47.5,55.5C 47.5,58.1667 47.5,60.8333 47.5,63.5C 47.5,66.1667 47.5,68.8333 47.5,71.5C 44.8333,71.5 42.1667,71.5 39.5,71.5C 39.5,66.1667 39.5,60.8333 39.5,55.5 Z"/></g>
<g><path style="opacity:1" fill="#45b532" d="M 87.5,63.5 C 87.5,68.8333 87.5,74.1667 87.5,79.5C 84.8333,79.5 82.1667,79.5 79.5,79.5C 79.5,76.8333 79.5,74.1667 79.5,71.5C 76.8333,71.5 74.1667,71.5 71.5,71.5C 71.5,68.8333 71.5,66.1667 71.5,63.5C 68.8333,63.5 66.1667,63.5 63.5,63.5C 63.5,60.8333 63.5,58.1667 63.5,55.5C 68.8333,55.5 74.1667,55.5 79.5,55.5C 79.5,58.1667 79.5,60.8333 79.5,63.5C 82.1667,63.5 84.8333,63.5 87.5,63.5 Z"/></g>
<g><path style="opacity:1" fill="#14a02d" d="M 127.5,55.5 C 127.5,58.1667 127.5,60.8333 127.5,63.5C 124.833,63.5 122.167,63.5 119.5,63.5C 119.5,60.8333 119.5,58.1667 119.5,55.5C 122.167,55.5 124.833,55.5 127.5,55.5 Z"/></g>
<g><path style="opacity:1" fill="#18ba17" d="M 127.5,55.5 C 130.167,55.5 132.833,55.5 135.5,55.5C 135.5,63.5 135.5,71.5 135.5,79.5C 132.833,79.5 130.167,79.5 127.5,79.5C 127.5,74.1667 127.5,68.8333 127.5,63.5C 127.5,60.8333 127.5,58.1667 127.5,55.5 Z"/></g>
<g><path style="opacity:1" fill="#14a02d" d="M 135.5,55.5 C 138.167,55.5 140.833,55.5 143.5,55.5C 143.5,58.1667 143.5,60.8333 143.5,63.5C 143.5,68.8333 143.5,74.1667 143.5,79.5C 140.833,79.5 138.167,79.5 135.5,79.5C 135.5,71.5 135.5,63.5 135.5,55.5 Z"/></g>
<g><path style="opacity:1" fill="#14a02d" d="M 191.5,63.5 C 191.5,60.8333 191.5,58.1667 191.5,55.5C 194.167,55.5 196.833,55.5 199.5,55.5C 199.5,58.1667 199.5,60.8333 199.5,63.5C 196.833,63.5 194.167,63.5 191.5,63.5 Z"/></g>
<g><path style="opacity:1" fill="#59c134" d="M -0.5,63.5 C 2.16667,63.5 4.83333,63.5 7.5,63.5C 7.5,71.5 7.5,79.5 7.5,87.5C 4.83333,87.5 2.16667,87.5 -0.5,87.5C -0.5,79.5 -0.5,71.5 -0.5,63.5 Z"/></g>
<g><path style="opacity:1" fill="#59c134" d="M 23.5,63.5 C 26.1667,63.5 28.8333,63.5 31.5,63.5C 31.5,66.1667 31.5,68.8333 31.5,71.5C 28.8333,71.5 26.1667,71.5 23.5,71.5C 23.5,68.8333 23.5,66.1667 23.5,63.5 Z"/></g>
<g><path style="opacity:1" fill="#18ba17" d="M 47.5,63.5 C 52.8333,63.5 58.1667,63.5 63.5,63.5C 63.5,68.8333 63.5,74.1667 63.5,79.5C 60.8333,79.5 58.1667,79.5 55.5,79.5C 55.5,76.8333 55.5,74.1667 55.5,71.5C 52.8333,71.5 50.1667,71.5 47.5,71.5C 47.5,68.8333 47.5,66.1667 47.5,63.5 Z"/></g>
<g><path style="opacity:1" fill="#1a7a3d" d="M 63.5,63.5 C 66.1667,63.5 68.8333,63.5 71.5,63.5C 71.5,66.1667 71.5,68.8333 71.5,71.5C 74.1667,71.5 76.8333,71.5 79.5,71.5C 79.5,74.1667 79.5,76.8333 79.5,79.5C 74.1667,79.5 68.8333,79.5 63.5,79.5C 63.5,74.1667 63.5,68.8333 63.5,63.5 Z"/></g>
<g><path style="opacity:1" fill="#1a7a3d" d="M 87.5,63.5 C 90.1667,63.5 92.8333,63.5 95.5,63.5C 95.5,66.1667 95.5,68.8333 95.5,71.5C 100.833,71.5 106.167,71.5 111.5,71.5C 111.5,74.1667 111.5,76.8333 111.5,79.5C 114.167,79.5 116.833,79.5 119.5,79.5C 119.5,74.1667 119.5,68.8333 119.5,63.5C 122.167,63.5 124.833,63.5 127.5,63.5C 127.5,68.8333 127.5,74.1667 127.5,79.5C 130.167,79.5 132.833,79.5 135.5,79.5C 138.167,79.5 140.833,79.5 143.5,79.5C 146.167,79.5 148.833,79.5 151.5,79.5C 151.5,82.1667 151.5,84.8333 151.5,87.5C 148.833,87.5 146.167,87.5 143.5,87.5C 140.833,87.5 138.167,87.5 135.5,87.5C 132.833,87.5 130.167,87.5 127.5,87.5C 124.833,87.5 122.167,87.5 119.5,87.5C 119.5,90.1667 119.5,92.8333 119.5,95.5C 119.5,98.1667 119.5,100.833 119.5,103.5C 116.833,103.5 114.167,103.5 111.5,103.5C 111.5,100.833 111.5,98.1667 111.5,95.5C 108.833,95.5 106.167,95.5 103.5,95.5C 103.5,90.1667 103.5,84.8333 103.5,79.5C 98.1667,79.5 92.8333,79.5 87.5,79.5C 87.5,74.1667 87.5,68.8333 87.5,63.5 Z"/></g>
<g><path style="opacity:1" fill="#18ba17" d="M 143.5,63.5 C 146.167,63.5 148.833,63.5 151.5,63.5C 151.5,66.1667 151.5,68.8333 151.5,71.5C 151.5,74.1667 151.5,76.8333 151.5,79.5C 148.833,79.5 146.167,79.5 143.5,79.5C 143.5,74.1667 143.5,68.8333 143.5,63.5 Z"/></g>
<g><path style="opacity:1" fill="#14a02d" d="M 151.5,63.5 C 154.167,63.5 156.833,63.5 159.5,63.5C 162.167,63.5 164.833,63.5 167.5,63.5C 167.5,66.1667 167.5,68.8333 167.5,71.5C 170.167,71.5 172.833,71.5 175.5,71.5C 175.5,74.1667 175.5,76.8333 175.5,79.5C 170.167,79.5 164.833,79.5 159.5,79.5C 159.5,76.8333 159.5,74.1667 159.5,71.5C 156.833,71.5 154.167,71.5 151.5,71.5C 151.5,68.8333 151.5,66.1667 151.5,63.5 Z"/></g>
<g><path style="opacity:1" fill="#14a02d" d="M 191.5,63.5 C 191.5,68.8333 191.5,74.1667 191.5,79.5C 188.833,79.5 186.167,79.5 183.5,79.5C 183.5,74.1667 183.5,68.8333 183.5,63.5C 186.167,63.5 188.833,63.5 191.5,63.5 Z"/></g>
<g><path style="opacity:1" fill="#3fb131" d="M 23.5,71.5 C 23.5,74.1667 23.5,76.8333 23.5,79.5C 26.1667,79.5 28.8333,79.5 31.5,79.5C 31.5,82.1667 31.5,84.8333 31.5,87.5C 28.8333,87.5 26.1667,87.5 23.5,87.5C 23.5,92.8333 23.5,98.1667 23.5,103.5C 20.8333,103.5 18.1667,103.5 15.5,103.5C 15.5,92.8333 15.5,82.1667 15.5,71.5C 18.1667,71.5 20.8333,71.5 23.5,71.5 Z"/></g>
<g><path style="opacity:1" fill="#1a7a3d" d="M 151.5,71.5 C 154.167,71.5 156.833,71.5 159.5,71.5C 159.5,74.1667 159.5,76.8333 159.5,79.5C 156.833,79.5 154.167,79.5 151.5,79.5C 151.5,76.8333 151.5,74.1667 151.5,71.5 Z"/></g>
<g><path style="opacity:1" fill="#14a02d" d="M 55.5,79.5 C 55.5,82.1667 55.5,84.8333 55.5,87.5C 52.8333,87.5 50.1667,87.5 47.5,87.5C 47.5,84.8333 47.5,82.1667 47.5,79.5C 50.1667,79.5 52.8333,79.5 55.5,79.5 Z"/></g>
<g><path style="opacity:1" fill="#1a7a3d" d="M 55.5,79.5 C 58.1667,79.5 60.8333,79.5 63.5,79.5C 63.5,82.1667 63.5,84.8333 63.5,87.5C 60.8333,87.5 58.1667,87.5 55.5,87.5C 55.5,84.8333 55.5,82.1667 55.5,79.5 Z"/></g>
<g><path style="opacity:1" fill="#28a62f" d="M 63.5,79.5 C 68.8333,79.5 74.1667,79.5 79.5,79.5C 79.5,82.1667 79.5,84.8333 79.5,87.5C 76.8333,87.5 74.1667,87.5 71.5,87.5C 71.5,90.1667 71.5,92.8333 71.5,95.5C 68.8333,95.5 66.1667,95.5 63.5,95.5C 60.8333,95.5 58.1667,95.5 55.5,95.5C 55.5,92.8333 55.5,90.1667 55.5,87.5C 58.1667,87.5 60.8333,87.5 63.5,87.5C 63.5,84.8333 63.5,82.1667 63.5,79.5 Z"/></g>
<g><path style="opacity:1" fill="#1a7a3d" d="M 79.5,79.5 C 82.1667,79.5 84.8333,79.5 87.5,79.5C 87.5,82.1667 87.5,84.8333 87.5,87.5C 84.8333,87.5 82.1667,87.5 79.5,87.5C 79.5,84.8333 79.5,82.1667 79.5,79.5 Z"/></g>
<g><path style="opacity:1" fill="#59c134" d="M 151.5,79.5 C 154.167,79.5 156.833,79.5 159.5,79.5C 159.5,84.8333 159.5,90.1667 159.5,95.5C 156.833,95.5 154.167,95.5 151.5,95.5C 148.833,95.5 146.167,95.5 143.5,95.5C 143.5,92.8333 143.5,90.1667 143.5,87.5C 146.167,87.5 148.833,87.5 151.5,87.5C 151.5,84.8333 151.5,82.1667 151.5,79.5 Z"/></g>
<g><path style="opacity:1" fill="#1a7a3d" d="M 159.5,79.5 C 164.833,79.5 170.167,79.5 175.5,79.5C 175.5,82.1667 175.5,84.8333 175.5,87.5C 172.833,87.5 170.167,87.5 167.5,87.5C 167.5,90.1667 167.5,92.8333 167.5,95.5C 164.833,95.5 162.167,95.5 159.5,95.5C 159.5,90.1667 159.5,84.8333 159.5,79.5 Z"/></g>
<g><path style="opacity:1" fill="#18ba17" d="M 175.5,79.5 C 178.167,79.5 180.833,79.5 183.5,79.5C 186.167,79.5 188.833,79.5 191.5,79.5C 191.5,82.1667 191.5,84.8333 191.5,87.5C 188.833,87.5 186.167,87.5 183.5,87.5C 183.5,90.1667 183.5,92.8333 183.5,95.5C 180.833,95.5 178.167,95.5 175.5,95.5C 175.5,92.8333 175.5,90.1667 175.5,87.5C 175.5,84.8333 175.5,82.1667 175.5,79.5 Z"/></g>
<g><path style="opacity:1" fill="#1a7a3d" d="M 31.5,87.5 C 31.5,98.1667 31.5,108.833 31.5,119.5C 28.8333,119.5 26.1667,119.5 23.5,119.5C 23.5,116.833 23.5,114.167 23.5,111.5C 20.8333,111.5 18.1667,111.5 15.5,111.5C 15.5,108.833 15.5,106.167 15.5,103.5C 18.1667,103.5 20.8333,103.5 23.5,103.5C 23.5,98.1667 23.5,92.8333 23.5,87.5C 26.1667,87.5 28.8333,87.5 31.5,87.5 Z"/></g>
<g><path style="opacity:1" fill="#4eba33" d="M 31.5,87.5 C 34.1667,87.5 36.8333,87.5 39.5,87.5C 39.5,92.8333 39.5,98.1667 39.5,103.5C 39.5,108.833 39.5,114.167 39.5,119.5C 36.8333,119.5 34.1667,119.5 31.5,119.5C 31.5,108.833 31.5,98.1667 31.5,87.5 Z"/></g>
<g><path style="opacity:1" fill="#14a02d" d="M 39.5,87.5 C 42.1667,87.5 44.8333,87.5 47.5,87.5C 47.5,90.1667 47.5,92.8333 47.5,95.5C 47.5,98.1667 47.5,100.833 47.5,103.5C 44.8333,103.5 42.1667,103.5 39.5,103.5C 39.5,98.1667 39.5,92.8333 39.5,87.5 Z"/></g>
<g><path style="opacity:1" fill="#1a7a3d" d="M 47.5,87.5 C 50.1667,87.5 52.8333,87.5 55.5,87.5C 55.5,90.1667 55.5,92.8333 55.5,95.5C 52.8333,95.5 50.1667,95.5 47.5,95.5C 47.5,92.8333 47.5,90.1667 47.5,87.5 Z"/></g>
<g><path style="opacity:1" fill="#14a02d" d="M 127.5,87.5 C 127.5,90.1667 127.5,92.8333 127.5,95.5C 124.833,95.5 122.167,95.5 119.5,95.5C 119.5,92.8333 119.5,90.1667 119.5,87.5C 122.167,87.5 124.833,87.5 127.5,87.5 Z"/></g>
<g><path style="opacity:1" fill="#14a02d" d="M 135.5,87.5 C 138.167,87.5 140.833,87.5 143.5,87.5C 143.5,90.1667 143.5,92.8333 143.5,95.5C 143.5,98.1667 143.5,100.833 143.5,103.5C 140.833,103.5 138.167,103.5 135.5,103.5C 135.5,98.1667 135.5,92.8333 135.5,87.5 Z"/></g>
<g><path style="opacity:1" fill="#14a02d" d="M 175.5,87.5 C 175.5,90.1667 175.5,92.8333 175.5,95.5C 172.833,95.5 170.167,95.5 167.5,95.5C 167.5,92.8333 167.5,90.1667 167.5,87.5C 170.167,87.5 172.833,87.5 175.5,87.5 Z"/></g>
<g><path style="opacity:1" fill="#1a7a3d" d="M 191.5,87.5 C 191.5,90.1667 191.5,92.8333 191.5,95.5C 188.833,95.5 186.167,95.5 183.5,95.5C 183.5,92.8333 183.5,90.1667 183.5,87.5C 186.167,87.5 188.833,87.5 191.5,87.5 Z"/></g>
<g><path style="opacity:1" fill="#14a02d" d="M 191.5,87.5 C 194.167,87.5 196.833,87.5 199.5,87.5C 199.5,90.1667 199.5,92.8333 199.5,95.5C 196.833,95.5 194.167,95.5 191.5,95.5C 191.5,92.8333 191.5,90.1667 191.5,87.5 Z"/></g>
<g><path style="opacity:1" fill="#14a02d" d="M -0.5,95.5 C 2.16667,95.5 4.83333,95.5 7.5,95.5C 7.5,98.1667 7.5,100.833 7.5,103.5C 7.5,106.167 7.5,108.833 7.5,111.5C 4.83333,111.5 2.16667,111.5 -0.5,111.5C -0.5,106.167 -0.5,100.833 -0.5,95.5 Z"/></g>
<g><path style="opacity:1" fill="#59c134" d="M 47.5,95.5 C 50.1667,95.5 52.8333,95.5 55.5,95.5C 55.5,98.1667 55.5,100.833 55.5,103.5C 55.5,106.167 55.5,108.833 55.5,111.5C 52.8333,111.5 50.1667,111.5 47.5,111.5C 47.5,108.833 47.5,106.167 47.5,103.5C 47.5,100.833 47.5,98.1667 47.5,95.5 Z"/></g>
<g><path style="opacity:1" fill="#1a7a3d" d="M 55.5,95.5 C 58.1667,95.5 60.8333,95.5 63.5,95.5C 63.5,98.1667 63.5,100.833 63.5,103.5C 60.8333,103.5 58.1667,103.5 55.5,103.5C 55.5,100.833 55.5,98.1667 55.5,95.5 Z"/></g>
<g><path style="opacity:1" fill="#223214" d="M 63.5,95.5 C 66.1667,95.5 68.8333,95.5 71.5,95.5C 71.5,98.1667 71.5,100.833 71.5,103.5C 68.8333,103.5 66.1667,103.5 63.5,103.5C 63.5,100.833 63.5,98.1667 63.5,95.5 Z"/></g>
<g><path style="opacity:1" fill="#233716" d="M 127.5,87.5 C 130.167,87.5 132.833,87.5 135.5,87.5C 135.5,92.8333 135.5,98.1667 135.5,103.5C 135.5,106.167 135.5,108.833 135.5,111.5C 132.833,111.5 130.167,111.5 127.5,111.5C 127.5,108.833 127.5,106.167 127.5,103.5C 124.833,103.5 122.167,103.5 119.5,103.5C 119.5,100.833 119.5,98.1667 119.5,95.5C 122.167,95.5 124.833,95.5 127.5,95.5C 127.5,92.8333 127.5,90.1667 127.5,87.5 Z"/></g>
<g><path style="opacity:1" fill="#273917" d="M 143.5,95.5 C 146.167,95.5 148.833,95.5 151.5,95.5C 151.5,98.1667 151.5,100.833 151.5,103.5C 148.833,103.5 146.167,103.5 143.5,103.5C 143.5,100.833 143.5,98.1667 143.5,95.5 Z"/></g>
<g><path style="opacity:1" fill="#1a7a3d" d="M 151.5,95.5 C 154.167,95.5 156.833,95.5 159.5,95.5C 159.5,98.1667 159.5,100.833 159.5,103.5C 156.833,103.5 154.167,103.5 151.5,103.5C 151.5,100.833 151.5,98.1667 151.5,95.5 Z"/></g>
<g><path style="opacity:1" fill="#14a02d" d="M 159.5,95.5 C 162.167,95.5 164.833,95.5 167.5,95.5C 167.5,100.833 167.5,106.167 167.5,111.5C 164.833,111.5 162.167,111.5 159.5,111.5C 159.5,108.833 159.5,106.167 159.5,103.5C 159.5,100.833 159.5,98.1667 159.5,95.5 Z"/></g>
<g><path style="opacity:1" fill="#14a02d" d="M 183.5,95.5 C 186.167,95.5 188.833,95.5 191.5,95.5C 191.5,100.833 191.5,106.167 191.5,111.5C 188.833,111.5 186.167,111.5 183.5,111.5C 183.5,106.167 183.5,100.833 183.5,95.5 Z"/></g>
<g><path style="opacity:1" fill="#1a7a3d" d="M 39.5,103.5 C 42.1667,103.5 44.8333,103.5 47.5,103.5C 47.5,106.167 47.5,108.833 47.5,111.5C 47.5,116.833 47.5,122.167 47.5,127.5C 44.8333,127.5 42.1667,127.5 39.5,127.5C 36.8333,127.5 34.1667,127.5 31.5,127.5C 31.5,124.833 31.5,122.167 31.5,119.5C 34.1667,119.5 36.8333,119.5 39.5,119.5C 39.5,114.167 39.5,108.833 39.5,103.5 Z"/></g>
<g><path style="opacity:1" fill="#18ba17" d="M 151.5,103.5 C 154.167,103.5 156.833,103.5 159.5,103.5C 159.5,106.167 159.5,108.833 159.5,111.5C 156.833,111.5 154.167,111.5 151.5,111.5C 151.5,108.833 151.5,106.167 151.5,103.5 Z"/></g>
<g><path style="opacity:1" fill="#14a02d" d="M 207.5,103.5 C 207.5,106.167 207.5,108.833 207.5,111.5C 204.833,111.5 202.167,111.5 199.5,111.5C 199.5,108.833 199.5,106.167 199.5,103.5C 202.167,103.5 204.833,103.5 207.5,103.5 Z"/></g>
<g><path style="opacity:1" fill="#4abb2f" d="M 7.5,103.5 C 10.1667,103.5 12.8333,103.5 15.5,103.5C 15.5,106.167 15.5,108.833 15.5,111.5C 18.1667,111.5 20.8333,111.5 23.5,111.5C 23.5,114.167 23.5,116.833 23.5,119.5C 26.1667,119.5 28.8333,119.5 31.5,119.5C 31.5,122.167 31.5,124.833 31.5,127.5C 28.8333,127.5 26.1667,127.5 23.5,127.5C 23.5,130.167 23.5,132.833 23.5,135.5C 20.8333,135.5 18.1667,135.5 15.5,135.5C 15.5,130.167 15.5,124.833 15.5,119.5C 12.8333,119.5 10.1667,119.5 7.5,119.5C 7.5,124.833 7.5,130.167 7.5,135.5C 4.83333,135.5 2.16667,135.5 -0.5,135.5C -0.5,127.5 -0.5,119.5 -0.5,111.5C 2.16667,111.5 4.83333,111.5 7.5,111.5C 7.5,108.833 7.5,106.167 7.5,103.5 Z"/></g>
<g><path style="opacity:1" fill="#14a02d" d="M 15.5,135.5 C 15.5,138.167 15.5,140.833 15.5,143.5C 12.8333,143.5 10.1667,143.5 7.5,143.5C 7.5,140.833 7.5,138.167 7.5,135.5C 7.5,130.167 7.5,124.833 7.5,119.5C 10.1667,119.5 12.8333,119.5 15.5,119.5C 15.5,124.833 15.5,130.167 15.5,135.5 Z"/></g>
<g><path style="opacity:1" fill="#28a62f" d="M 167.5,135.5 C 167.5,132.833 167.5,130.167 167.5,127.5C 167.5,124.833 167.5,122.167 167.5,119.5C 172.833,119.5 178.167,119.5 183.5,119.5C 183.5,124.833 183.5,130.167 183.5,135.5C 178.167,135.5 172.833,135.5 167.5,135.5 Z"/></g>
<g><path style="opacity:1" fill="#14a02d" d="M 191.5,119.5 C 194.167,119.5 196.833,119.5 199.5,119.5C 199.5,124.833 199.5,130.167 199.5,135.5C 196.833,135.5 194.167,135.5 191.5,135.5C 191.5,130.167 191.5,124.833 191.5,119.5 Z"/></g>
<g><path style="opacity:1" fill="#1a7a3d" d="M 31.5,127.5 C 31.5,130.167 31.5,132.833 31.5,135.5C 28.8333,135.5 26.1667,135.5 23.5,135.5C 23.5,132.833 23.5,130.167 23.5,127.5C 26.1667,127.5 28.8333,127.5 31.5,127.5 Z"/></g>
<g><path style="opacity:1" fill="#18ba17" d="M 31.5,127.5 C 34.1667,127.5 36.8333,127.5 39.5,127.5C 39.5,130.167 39.5,132.833 39.5,135.5C 36.8333,135.5 34.1667,135.5 31.5,135.5C 31.5,132.833 31.5,130.167 31.5,127.5 Z"/></g>
<g><path style="opacity:1" fill="#1e4716" d="M 39.5,127.5 C 42.1667,127.5 44.8333,127.5 47.5,127.5C 50.1667,127.5 52.8333,127.5 55.5,127.5C 55.5,130.167 55.5,132.833 55.5,135.5C 52.8333,135.5 50.1667,135.5 47.5,135.5C 44.8333,135.5 42.1667,135.5 39.5,135.5C 39.5,132.833 39.5,130.167 39.5,127.5 Z"/></g>
<g><path style="opacity:1" fill="#550e6d" d="M 87.5,79.5 C 92.8333,79.5 98.1667,79.5 103.5,79.5C 103.5,84.8333 103.5,90.1667 103.5,95.5C 106.167,95.5 108.833,95.5 111.5,95.5C 111.5,98.1667 111.5,100.833 111.5,103.5C 114.167,103.5 116.833,103.5 119.5,103.5C 122.167,103.5 124.833,103.5 127.5,103.5C 127.5,106.167 127.5,108.833 127.5,111.5C 130.167,111.5 132.833,111.5 135.5,111.5C 135.5,108.833 135.5,106.167 135.5,103.5C 138.167,103.5 140.833,103.5 143.5,103.5C 146.167,103.5 148.833,103.5 151.5,103.5C 151.5,106.167 151.5,108.833 151.5,111.5C 154.167,111.5 156.833,111.5 159.5,111.5C 159.5,116.833 159.5,122.167 159.5,127.5C 156.833,127.5 154.167,127.5 151.5,127.5C 151.5,130.167 151.5,132.833 151.5,135.5C 146.167,135.5 140.833,135.5 135.5,135.5C 135.5,138.167 135.5,140.833 135.5,143.5C 132.833,143.5 130.167,143.5 127.5,143.5C 124.833,143.5 122.167,143.5 119.5,143.5C 119.5,140.833 119.5,138.167 119.5,135.5C 116.833,135.5 114.167,135.5 111.5,135.5C 111.5,132.833 111.5,130.167 111.5,127.5C 108.833,127.5 106.167,127.5 103.5,127.5C 103.5,124.833 103.5,122.167 103.5,119.5C 95.5,119.5 87.5,119.5 79.5,119.5C 79.5,122.167 79.5,124.833 79.5,127.5C 76.8333,127.5 74.1667,127.5 71.5,127.5C 71.5,130.167 71.5,132.833 71.5,135.5C 68.8333,135.5 66.1667,135.5 63.5,135.5C 60.8333,135.5 58.1667,135.5 55.5,135.5C 55.5,132.833 55.5,130.167 55.5,127.5C 52.8333,127.5 50.1667,127.5 47.5,127.5C 47.5,122.167 47.5,116.833 47.5,111.5C 50.1667,111.5 52.8333,111.5 55.5,111.5C 55.5,108.833 55.5,106.167 55.5,103.5C 58.1667,103.5 60.8333,103.5 63.5,103.5C 66.1667,103.5 68.8333,103.5 71.5,103.5C 71.5,100.833 71.5,98.1667 71.5,95.5C 71.5,92.8333 71.5,90.1667 71.5,87.5C 74.1667,87.5 76.8333,87.5 79.5,87.5C 82.1667,87.5 84.8333,87.5 87.5,87.5C 87.5,84.8333 87.5,82.1667 87.5,79.5 Z"/></g>
<g><path style="opacity:1" fill="#5e4f1d" d="M 103.5,127.5 C 106.167,127.5 108.833,127.5 111.5,127.5C 111.5,130.167 111.5,132.833 111.5,135.5C 108.833,135.5 106.167,135.5 103.5,135.5C 103.5,132.833 103.5,130.167 103.5,127.5 Z"/></g>
<g><path style="opacity:1" fill="#530e6d" d="M 79.5,127.5 C 82.1667,127.5 84.8333,127.5 87.5,127.5C 87.5,130.167 87.5,132.833 87.5,135.5C 84.8333,135.5 82.1667,135.5 79.5,135.5C 79.5,132.833 79.5,130.167 79.5,127.5 Z"/></g>
<g><path style="opacity:1" fill="#cda435" d="M 79.5,127.5 C 79.5,130.167 79.5,132.833 79.5,135.5C 76.8333,135.5 74.1667,135.5 71.5,135.5C 71.5,132.833 71.5,130.167 71.5,127.5C 74.1667,127.5 76.8333,127.5 79.5,127.5 Z"/></g>
<g><path style="opacity:1" fill="#e5b83d" d="M 151.5,127.5 C 148.833,127.5 146.167,127.5 143.5,127.5C 143.5,124.833 143.5,122.167 143.5,119.5C 146.167,119.5 148.833,119.5 151.5,119.5C 151.5,122.167 151.5,124.833 151.5,127.5 Z"/></g>
<g><path style="opacity:1" fill="#cfa01e" d="M 119.5,119.5 C 122.167,119.5 124.833,119.5 127.5,119.5C 127.5,122.167 127.5,124.833 127.5,127.5C 124.833,127.5 122.167,127.5 119.5,127.5C 119.5,124.833 119.5,122.167 119.5,119.5 Z"/></g>
<g><path style="opacity:1" fill="#fedb4a" d="M 55.5,127.5 C 55.5,124.833 55.5,122.167 55.5,119.5C 58.1667,119.5 60.8333,119.5 63.5,119.5C 63.5,122.167 63.5,124.833 63.5,127.5C 60.8333,127.5 58.1667,127.5 55.5,127.5 Z"/></g>
<g><path style="opacity:1" fill="#213f07" d="M 71.5,103.5 C 74.1667,103.5 76.8333,103.5 79.5,103.5C 79.5,106.167 79.5,108.833 79.5,111.5C 76.8333,111.5 74.1667,111.5 71.5,111.5C 71.5,108.833 71.5,106.167 71.5,103.5 Z"/></g>
<g><path style="opacity:1" fill="#f2c341" d="M 87.5,95.5 C 90.1667,95.5 92.8333,95.5 95.5,95.5C 95.5,98.1667 95.5,100.833 95.5,103.5C 92.8333,103.5 90.1667,103.5 87.5,103.5C 87.5,100.833 87.5,98.1667 87.5,95.5 Z"/></g>
<g><path style="opacity:1" fill="#274f2d" d="M 151.5,127.5 C 154.167,127.5 156.833,127.5 159.5,127.5C 162.167,127.5 164.833,127.5 167.5,127.5C 167.5,130.167 167.5,132.833 167.5,135.5C 162.167,135.5 156.833,135.5 151.5,135.5C 151.5,132.833 151.5,130.167 151.5,127.5 Z"/></g>
<g><path style="opacity:1" fill="#1b793c" d="M -0.5,135.5 C 2.16667,135.5 4.83333,135.5 7.5,135.5C 7.5,138.167 7.5,140.833 7.5,143.5C 10.1667,143.5 12.8333,143.5 15.5,143.5C 15.5,140.833 15.5,138.167 15.5,135.5C 18.1667,135.5 20.8333,135.5 23.5,135.5C 23.5,146.167 23.5,156.833 23.5,167.5C 26.1667,167.5 28.8333,167.5 31.5,167.5C 31.5,162.167 31.5,156.833 31.5,151.5C 34.1667,151.5 36.8333,151.5 39.5,151.5C 42.1667,151.5 44.8333,151.5 47.5,151.5C 47.5,148.833 47.5,146.167 47.5,143.5C 47.5,140.833 47.5,138.167 47.5,135.5C 50.1667,135.5 52.8333,135.5 55.5,135.5C 58.1667,135.5 60.8333,135.5 63.5,135.5C 63.5,138.167 63.5,140.833 63.5,143.5C 60.8333,143.5 58.1667,143.5 55.5,143.5C 55.5,146.167 55.5,148.833 55.5,151.5C 58.1667,151.5 60.8333,151.5 63.5,151.5C 63.5,156.833 63.5,162.167 63.5,167.5C 66.1667,167.5 68.8333,167.5 71.5,167.5C 71.5,170.167 71.5,172.833 71.5,175.5C 68.8333,175.5 66.1667,175.5 63.5,175.5C 60.8333,175.5 58.1667,175.5 55.5,175.5C 55.5,183.5 55.5,191.5 55.5,199.5C 47.5,199.5 39.5,199.5 31.5,199.5C 31.5,194.167 31.5,188.833 31.5,183.5C 31.5,180.833 31.5,178.167 31.5,175.5C 26.1667,175.5 20.8333,175.5 15.5,175.5C 15.5,183.5 15.5,191.5 15.5,199.5C 12.8333,199.5 10.1667,199.5 7.5,199.5C 7.5,196.833 7.5,194.167 7.5,191.5C 4.83333,191.5 2.16667,191.5 -0.5,191.5C -0.5,186.167 -0.5,180.833 -0.5,175.5C 2.16667,175.5 4.83333,175.5 7.5,175.5C 7.5,172.833 7.5,170.167 7.5,167.5C 10.1667,167.5 12.8333,167.5 15.5,167.5C 15.5,162.167 15.5,156.833 15.5,151.5C 12.8333,151.5 10.1667,151.5 7.5,151.5C 7.5,154.167 7.5,156.833 7.5,159.5C 4.83333,159.5 2.16667,159.5 -0.5,159.5C -0.5,151.5 -0.5,143.5 -0.5,135.5 Z"/></g>
<g><path style="opacity:1" fill="#14a02d" d="M 23.5,135.5 C 26.1667,135.5 28.8333,135.5 31.5,135.5C 31.5,138.167 31.5,140.833 31.5,143.5C 34.1667,143.5 36.8333,143.5 39.5,143.5C 39.5,146.167 39.5,148.833 39.5,151.5C 36.8333,151.5 34.1667,151.5 31.5,151.5C 31.5,156.833 31.5,162.167 31.5,167.5C 28.8333,167.5 26.1667,167.5 23.5,167.5C 23.5,156.833 23.5,146.167 23.5,135.5 Z"/></g>
<g><path style="opacity:1" fill="#1a7a3d" d="M 31.5,135.5 C 34.1667,135.5 36.8333,135.5 39.5,135.5C 39.5,138.167 39.5,140.833 39.5,143.5C 36.8333,143.5 34.1667,143.5 31.5,143.5C 31.5,140.833 31.5,138.167 31.5,135.5 Z"/></g>
<g><path style="opacity:1" fill="#18ba17" d="M 39.5,135.5 C 42.1667,135.5 44.8333,135.5 47.5,135.5C 47.5,138.167 47.5,140.833 47.5,143.5C 44.8333,143.5 42.1667,143.5 39.5,143.5C 39.5,140.833 39.5,138.167 39.5,135.5 Z"/></g>
<g><path style="opacity:1" fill="#5b1176" d="M 71.5,135.5 C 74.1667,135.5 76.8333,135.5 79.5,135.5C 79.5,138.167 79.5,140.833 79.5,143.5C 76.8333,143.5 74.1667,143.5 71.5,143.5C 71.5,140.833 71.5,138.167 71.5,135.5 Z"/></g>
<g><path style="opacity:1" fill="#131c11" d="M 103.5,135.5 C 106.167,135.5 108.833,135.5 111.5,135.5C 114.167,135.5 116.833,135.5 119.5,135.5C 119.5,138.167 119.5,140.833 119.5,143.5C 114.167,143.5 108.833,143.5 103.5,143.5C 103.5,140.833 103.5,138.167 103.5,135.5 Z"/></g>
<g><path style="opacity:1" fill="#215d21" d="M 151.5,135.5 C 151.5,138.167 151.5,140.833 151.5,143.5C 148.833,143.5 146.167,143.5 143.5,143.5C 140.833,143.5 138.167,143.5 135.5,143.5C 135.5,140.833 135.5,138.167 135.5,135.5C 140.833,135.5 146.167,135.5 151.5,135.5 Z"/></g>
<g><path style="opacity:1" fill="#4dbf2e" d="M 151.5,135.5 C 156.833,135.5 162.167,135.5 167.5,135.5C 167.5,140.833 167.5,146.167 167.5,151.5C 164.833,151.5 162.167,151.5 159.5,151.5C 159.5,148.833 159.5,146.167 159.5,143.5C 156.833,143.5 154.167,143.5 151.5,143.5C 151.5,140.833 151.5,138.167 151.5,135.5 Z"/></g>
<g><path style="opacity:1" fill="#1e3426" d="M 39.5,143.5 C 42.1667,143.5 44.8333,143.5 47.5,143.5C 47.5,146.167 47.5,148.833 47.5,151.5C 44.8333,151.5 42.1667,151.5 39.5,151.5C 39.5,148.833 39.5,146.167 39.5,143.5 Z"/></g>
<g><path style="opacity:1" fill="#17311a" d="M 63.5,135.5 C 66.1667,135.5 68.8333,135.5 71.5,135.5C 71.5,138.167 71.5,140.833 71.5,143.5C 74.1667,143.5 76.8333,143.5 79.5,143.5C 79.5,146.167 79.5,148.833 79.5,151.5C 76.8333,151.5 74.1667,151.5 71.5,151.5C 68.8333,151.5 66.1667,151.5 63.5,151.5C 60.8333,151.5 58.1667,151.5 55.5,151.5C 55.5,148.833 55.5,146.167 55.5,143.5C 58.1667,143.5 60.8333,143.5 63.5,143.5C 63.5,140.833 63.5,138.167 63.5,135.5 Z"/></g>
<g><path style="opacity:1" fill="#1d461a" d="M 103.5,127.5 C 103.5,130.167 103.5,132.833 103.5,135.5C 103.5,138.167 103.5,140.833 103.5,143.5C 108.833,143.5 114.167,143.5 119.5,143.5C 119.5,146.167 119.5,148.833 119.5,151.5C 116.833,151.5 114.167,151.5 111.5,151.5C 106.167,151.5 100.833,151.5 95.5,151.5C 90.1667,151.5 84.8333,151.5 79.5,151.5C 79.5,148.833 79.5,146.167 79.5,143.5C 79.5,140.833 79.5,138.167 79.5,135.5C 82.1667,135.5 84.8333,135.5 87.5,135.5C 87.5,132.833 87.5,130.167 87.5,127.5C 84.8333,127.5 82.1667,127.5 79.5,127.5C 79.5,124.833 79.5,122.167 79.5,119.5C 87.5,119.5 95.5,119.5 103.5,119.5C 103.5,122.167 103.5,124.833 103.5,127.5 Z"/></g>
<g><path style="opacity:1" fill="#47661f" d="M 119.5,143.5 C 122.167,143.5 124.833,143.5 127.5,143.5C 127.5,146.167 127.5,148.833 127.5,151.5C 124.833,151.5 122.167,151.5 119.5,151.5C 119.5,148.833 119.5,146.167 119.5,143.5 Z"/></g>
<g><path style="opacity:1" fill="#383938" d="M 127.5,143.5 C 130.167,143.5 132.833,143.5 135.5,143.5C 135.5,146.167 135.5,148.833 135.5,151.5C 132.833,151.5 130.167,151.5 127.5,151.5C 127.5,148.833 127.5,146.167 127.5,143.5 Z"/></g>
<g><path style="opacity:1" fill="#142d13" d="M 135.5,143.5 C 138.167,143.5 140.833,143.5 143.5,143.5C 143.5,146.167 143.5,148.833 143.5,151.5C 140.833,151.5 138.167,151.5 135.5,151.5C 135.5,148.833 135.5,146.167 135.5,143.5 Z"/></g>
<g><path style="opacity:1" fill="#363736" d="M 143.5,143.5 C 146.167,143.5 148.833,143.5 151.5,143.5C 151.5,146.167 151.5,148.833 151.5,151.5C 148.833,151.5 146.167,151.5 143.5,151.5C 143.5,148.833 143.5,146.167 143.5,143.5 Z"/></g>
<g><path style="opacity:1" fill="#152e13" d="M 151.5,143.5 C 154.167,143.5 156.833,143.5 159.5,143.5C 159.5,146.167 159.5,148.833 159.5,151.5C 156.833,151.5 154.167,151.5 151.5,151.5C 151.5,148.833 151.5,146.167 151.5,143.5 Z"/></g>
<g><path style="opacity:1" fill="#14a02d" d="M 207.5,143.5 C 207.5,151.5 207.5,159.5 207.5,167.5C 204.833,167.5 202.167,167.5 199.5,167.5C 199.5,159.5 199.5,151.5 199.5,143.5C 202.167,143.5 204.833,143.5 207.5,143.5 Z"/></g>
<g><path style="opacity:1" fill="#14a02d" d="M -0.5,175.5 C -0.5,170.167 -0.5,164.833 -0.5,159.5C 2.16667,159.5 4.83333,159.5 7.5,159.5C 7.5,156.833 7.5,154.167 7.5,151.5C 10.1667,151.5 12.8333,151.5 15.5,151.5C 15.5,156.833 15.5,162.167 15.5,167.5C 12.8333,167.5 10.1667,167.5 7.5,167.5C 7.5,170.167 7.5,172.833 7.5,175.5C 4.83333,175.5 2.16667,175.5 -0.5,175.5 Z"/></g>
<g><path style="opacity:1" fill="#18ba17" d="M 63.5,151.5 C 66.1667,151.5 68.8333,151.5 71.5,151.5C 71.5,154.167 71.5,156.833 71.5,159.5C 71.5,162.167 71.5,164.833 71.5,167.5C 68.8333,167.5 66.1667,167.5 63.5,167.5C 63.5,162.167 63.5,156.833 63.5,151.5 Z"/></g>
<g><path style="opacity:1" fill="#14a02d" d="M 71.5,151.5 C 74.1667,151.5 76.8333,151.5 79.5,151.5C 79.5,154.167 79.5,156.833 79.5,159.5C 76.8333,159.5 74.1667,159.5 71.5,159.5C 71.5,156.833 71.5,154.167 71.5,151.5 Z"/></g>
<g><path style="opacity:1" fill="#1a7a3d" d="M 79.5,151.5 C 84.8333,151.5 90.1667,151.5 95.5,151.5C 95.5,156.833 95.5,162.167 95.5,167.5C 98.1667,167.5 100.833,167.5 103.5,167.5C 103.5,170.167 103.5,172.833 103.5,175.5C 106.167,175.5 108.833,175.5 111.5,175.5C 111.5,178.167 111.5,180.833 111.5,183.5C 114.167,183.5 116.833,183.5 119.5,183.5C 119.5,191.5 119.5,199.5 119.5,207.5C 116.833,207.5 114.167,207.5 111.5,207.5C 111.5,202.167 111.5,196.833 111.5,191.5C 108.833,191.5 106.167,191.5 103.5,191.5C 103.5,194.167 103.5,196.833 103.5,199.5C 100.833,199.5 98.1667,199.5 95.5,199.5C 95.5,196.833 95.5,194.167 95.5,191.5C 95.5,188.833 95.5,186.167 95.5,183.5C 95.5,180.833 95.5,178.167 95.5,175.5C 92.8333,175.5 90.1667,175.5 87.5,175.5C 87.5,178.167 87.5,180.833 87.5,183.5C 84.8333,183.5 82.1667,183.5 79.5,183.5C 79.5,186.167 79.5,188.833 79.5,191.5C 76.8333,191.5 74.1667,191.5 71.5,191.5C 71.5,186.167 71.5,180.833 71.5,175.5C 74.1667,175.5 76.8333,175.5 79.5,175.5C 79.5,172.833 79.5,170.167 79.5,167.5C 82.1667,167.5 84.8333,167.5 87.5,167.5C 87.5,164.833 87.5,162.167 87.5,159.5C 84.8333,159.5 82.1667,159.5 79.5,159.5C 79.5,156.833 79.5,154.167 79.5,151.5 Z"/></g>
<g><path style="opacity:1" fill="#59c134" d="M 95.5,151.5 C 100.833,151.5 106.167,151.5 111.5,151.5C 111.5,154.167 111.5,156.833 111.5,159.5C 108.833,159.5 106.167,159.5 103.5,159.5C 103.5,162.167 103.5,164.833 103.5,167.5C 100.833,167.5 98.1667,167.5 95.5,167.5C 95.5,162.167 95.5,156.833 95.5,151.5 Z"/></g>
<g><path style="opacity:1" fill="#46b532" d="M 143.5,151.5 C 146.167,151.5 148.833,151.5 151.5,151.5C 154.167,151.5 156.833,151.5 159.5,151.5C 159.5,154.167 159.5,156.833 159.5,159.5C 154.167,159.5 148.833,159.5 143.5,159.5C 143.5,156.833 143.5,154.167 143.5,151.5 Z"/></g>
<g><path style="opacity:1" fill="#3eb62d" d="M 183.5,159.5 C 180.833,159.5 178.167,159.5 175.5,159.5C 175.5,154.167 175.5,148.833 175.5,143.5C 180.833,143.5 186.167,143.5 191.5,143.5C 191.5,146.167 191.5,148.833 191.5,151.5C 188.833,151.5 186.167,151.5 183.5,151.5C 183.5,154.167 183.5,156.833 183.5,159.5 Z"/></g>
<g><path style="opacity:1" fill="#14a02d" d="M 55.5,175.5 C 52.8333,175.5 50.1667,175.5 47.5,175.5C 47.5,170.167 47.5,164.833 47.5,159.5C 50.1667,159.5 52.8333,159.5 55.5,159.5C 55.5,164.833 55.5,170.167 55.5,175.5 Z"/></g>
<g><path style="opacity:1" fill="#1a7a3d" d="M 71.5,159.5 C 74.1667,159.5 76.8333,159.5 79.5,159.5C 79.5,162.167 79.5,164.833 79.5,167.5C 76.8333,167.5 74.1667,167.5 71.5,167.5C 71.5,164.833 71.5,162.167 71.5,159.5 Z"/></g>
<g><path style="opacity:1" fill="#14a02d" d="M 79.5,159.5 C 82.1667,159.5 84.8333,159.5 87.5,159.5C 87.5,162.167 87.5,164.833 87.5,167.5C 84.8333,167.5 82.1667,167.5 79.5,167.5C 79.5,164.833 79.5,162.167 79.5,159.5 Z"/></g>
<g><path style="opacity:1" fill="#14a02d" d="M 111.5,159.5 C 111.5,164.833 111.5,170.167 111.5,175.5C 108.833,175.5 106.167,175.5 103.5,175.5C 103.5,172.833 103.5,170.167 103.5,167.5C 103.5,164.833 103.5,162.167 103.5,159.5C 106.167,159.5 108.833,159.5 111.5,159.5 Z"/></g>
<g><path style="opacity:1" fill="#14a02d" d="M 135.5,175.5 C 132.833,175.5 130.167,175.5 127.5,175.5C 127.5,170.167 127.5,164.833 127.5,159.5C 130.167,159.5 132.833,159.5 135.5,159.5C 135.5,164.833 135.5,170.167 135.5,175.5 Z"/></g>
<g><path style="opacity:1" fill="#14a02d" d="M 175.5,159.5 C 178.167,159.5 180.833,159.5 183.5,159.5C 183.5,162.167 183.5,164.833 183.5,167.5C 180.833,167.5 178.167,167.5 175.5,167.5C 175.5,170.167 175.5,172.833 175.5,175.5C 170.167,175.5 164.833,175.5 159.5,175.5C 159.5,172.833 159.5,170.167 159.5,167.5C 162.167,167.5 164.833,167.5 167.5,167.5C 167.5,164.833 167.5,162.167 167.5,159.5C 170.167,159.5 172.833,159.5 175.5,159.5 Z"/></g>
<g><path style="opacity:1" fill="#18ba17" d="M 71.5,167.5 C 74.1667,167.5 76.8333,167.5 79.5,167.5C 79.5,170.167 79.5,172.833 79.5,175.5C 76.8333,175.5 74.1667,175.5 71.5,175.5C 71.5,172.833 71.5,170.167 71.5,167.5 Z"/></g>
<g><path style="opacity:1" fill="#59c134" d="M 159.5,167.5 C 159.5,170.167 159.5,172.833 159.5,175.5C 159.5,178.167 159.5,180.833 159.5,183.5C 156.833,183.5 154.167,183.5 151.5,183.5C 151.5,180.833 151.5,178.167 151.5,175.5C 151.5,172.833 151.5,170.167 151.5,167.5C 154.167,167.5 156.833,167.5 159.5,167.5 Z"/></g>
<g><path style="opacity:1" fill="#14a02d" d="M 47.5,175.5 C 47.5,178.167 47.5,180.833 47.5,183.5C 44.8333,183.5 42.1667,183.5 39.5,183.5C 39.5,180.833 39.5,178.167 39.5,175.5C 42.1667,175.5 44.8333,175.5 47.5,175.5 Z"/></g>
<g><path style="opacity:1" fill="#18ba17" d="M 55.5,175.5 C 58.1667,175.5 60.8333,175.5 63.5,175.5C 63.5,180.833 63.5,186.167 63.5,191.5C 63.5,194.167 63.5,196.833 63.5,199.5C 60.8333,199.5 58.1667,199.5 55.5,199.5C 55.5,191.5 55.5,183.5 55.5,175.5 Z"/></g>
<g><path style="opacity:1" fill="#14a02d" d="M 63.5,175.5 C 66.1667,175.5 68.8333,175.5 71.5,175.5C 71.5,180.833 71.5,186.167 71.5,191.5C 68.8333,191.5 66.1667,191.5 63.5,191.5C 63.5,186.167 63.5,180.833 63.5,175.5 Z"/></g>
<g><path style="opacity:1" fill="#14a02d" d="M 95.5,183.5 C 92.8333,183.5 90.1667,183.5 87.5,183.5C 87.5,180.833 87.5,178.167 87.5,175.5C 90.1667,175.5 92.8333,175.5 95.5,175.5C 95.5,178.167 95.5,180.833 95.5,183.5 Z"/></g>
<g><path style="opacity:1" fill="#47bb2e" d="M 111.5,175.5 C 116.833,175.5 122.167,175.5 127.5,175.5C 130.167,175.5 132.833,175.5 135.5,175.5C 138.167,175.5 140.833,175.5 143.5,175.5C 143.5,180.833 143.5,186.167 143.5,191.5C 143.5,194.167 143.5,196.833 143.5,199.5C 140.833,199.5 138.167,199.5 135.5,199.5C 135.5,196.833 135.5,194.167 135.5,191.5C 132.833,191.5 130.167,191.5 127.5,191.5C 127.5,188.833 127.5,186.167 127.5,183.5C 124.833,183.5 122.167,183.5 119.5,183.5C 116.833,183.5 114.167,183.5 111.5,183.5C 111.5,180.833 111.5,178.167 111.5,175.5 Z"/></g>
<g><path style="opacity:1" fill="#14a02d" d="M 143.5,175.5 C 146.167,175.5 148.833,175.5 151.5,175.5C 151.5,178.167 151.5,180.833 151.5,183.5C 154.167,183.5 156.833,183.5 159.5,183.5C 159.5,186.167 159.5,188.833 159.5,191.5C 154.167,191.5 148.833,191.5 143.5,191.5C 143.5,186.167 143.5,180.833 143.5,175.5 Z"/></g>
<g><path style="opacity:1" fill="#1a7a3d" d="M 159.5,175.5 C 164.833,175.5 170.167,175.5 175.5,175.5C 175.5,178.167 175.5,180.833 175.5,183.5C 172.833,183.5 170.167,183.5 167.5,183.5C 167.5,186.167 167.5,188.833 167.5,191.5C 164.833,191.5 162.167,191.5 159.5,191.5C 159.5,188.833 159.5,186.167 159.5,183.5C 159.5,180.833 159.5,178.167 159.5,175.5 Z"/></g>
<g><path style="opacity:1" fill="#18ba17" d="M 175.5,175.5 C 178.167,175.5 180.833,175.5 183.5,175.5C 183.5,178.167 183.5,180.833 183.5,183.5C 180.833,183.5 178.167,183.5 175.5,183.5C 175.5,180.833 175.5,178.167 175.5,175.5 Z"/></g>
<g><path style="opacity:1" fill="#14a02d" d="M 199.5,183.5 C 196.833,183.5 194.167,183.5 191.5,183.5C 191.5,180.833 191.5,178.167 191.5,175.5C 194.167,175.5 196.833,175.5 199.5,175.5C 199.5,178.167 199.5,180.833 199.5,183.5 Z"/></g>
<g><path style="opacity:1" fill="#53bd34" d="M 31.5,183.5 C 28.8333,183.5 26.1667,183.5 23.5,183.5C 23.5,188.833 23.5,194.167 23.5,199.5C 20.8333,199.5 18.1667,199.5 15.5,199.5C 15.5,191.5 15.5,183.5 15.5,175.5C 20.8333,175.5 26.1667,175.5 31.5,175.5C 31.5,178.167 31.5,180.833 31.5,183.5 Z"/></g>
<g><path style="opacity:1" fill="#14a02d" d="M 31.5,183.5 C 31.5,188.833 31.5,194.167 31.5,199.5C 28.8333,199.5 26.1667,199.5 23.5,199.5C 23.5,194.167 23.5,188.833 23.5,183.5C 26.1667,183.5 28.8333,183.5 31.5,183.5 Z"/></g>
<g><path style="opacity:1" fill="#18ba17" d="M 87.5,183.5 C 90.1667,183.5 92.8333,183.5 95.5,183.5C 95.5,186.167 95.5,188.833 95.5,191.5C 92.8333,191.5 90.1667,191.5 87.5,191.5C 87.5,194.167 87.5,196.833 87.5,199.5C 84.8333,199.5 82.1667,199.5 79.5,199.5C 79.5,196.833 79.5,194.167 79.5,191.5C 79.5,188.833 79.5,186.167 79.5,183.5C 82.1667,183.5 84.8333,183.5 87.5,183.5 Z"/></g>
<g><path style="opacity:1" fill="#18ba17" d="M 119.5,183.5 C 122.167,183.5 124.833,183.5 127.5,183.5C 127.5,186.167 127.5,188.833 127.5,191.5C 127.5,196.833 127.5,202.167 127.5,207.5C 124.833,207.5 122.167,207.5 119.5,207.5C 119.5,199.5 119.5,191.5 119.5,183.5 Z"/></g>
<g><path style="opacity:1" fill="#14a02d" d="M 175.5,183.5 C 175.5,186.167 175.5,188.833 175.5,191.5C 178.167,191.5 180.833,191.5 183.5,191.5C 183.5,196.833 183.5,202.167 183.5,207.5C 180.833,207.5 178.167,207.5 175.5,207.5C 175.5,204.833 175.5,202.167 175.5,199.5C 172.833,199.5 170.167,199.5 167.5,199.5C 167.5,196.833 167.5,194.167 167.5,191.5C 167.5,188.833 167.5,186.167 167.5,183.5C 170.167,183.5 172.833,183.5 175.5,183.5 Z"/></g>
<g><path style="opacity:1" fill="#14a02d" d="M 199.5,183.5 C 202.167,183.5 204.833,183.5 207.5,183.5C 207.5,191.5 207.5,199.5 207.5,207.5C 204.833,207.5 202.167,207.5 199.5,207.5C 199.5,199.5 199.5,191.5 199.5,183.5 Z"/></g>
<g><path style="opacity:1" fill="#14a02d" d="M -0.5,191.5 C 2.16667,191.5 4.83333,191.5 7.5,191.5C 7.5,194.167 7.5,196.833 7.5,199.5C 4.83333,199.5 2.16667,199.5 -0.5,199.5C -0.5,196.833 -0.5,194.167 -0.5,191.5 Z"/></g>
<g><path style="opacity:1" fill="#1a7a3d" d="M 63.5,191.5 C 66.1667,191.5 68.8333,191.5 71.5,191.5C 71.5,196.833 71.5,202.167 71.5,207.5C 66.1667,207.5 60.8333,207.5 55.5,207.5C 55.5,204.833 55.5,202.167 55.5,199.5C 58.1667,199.5 60.8333,199.5 63.5,199.5C 63.5,196.833 63.5,194.167 63.5,191.5 Z"/></g>
<g><path style="opacity:1" fill="#4fbb33" d="M 71.5,191.5 C 74.1667,191.5 76.8333,191.5 79.5,191.5C 79.5,194.167 79.5,196.833 79.5,199.5C 82.1667,199.5 84.8333,199.5 87.5,199.5C 87.5,196.833 87.5,194.167 87.5,191.5C 90.1667,191.5 92.8333,191.5 95.5,191.5C 95.5,194.167 95.5,196.833 95.5,199.5C 95.5,202.167 95.5,204.833 95.5,207.5C 87.5,207.5 79.5,207.5 71.5,207.5C 71.5,202.167 71.5,196.833 71.5,191.5 Z"/></g>
<g><path style="opacity:1" fill="#14a02d" d="M 111.5,207.5 C 106.167,207.5 100.833,207.5 95.5,207.5C 95.5,204.833 95.5,202.167 95.5,199.5C 98.1667,199.5 100.833,199.5 103.5,199.5C 103.5,196.833 103.5,194.167 103.5,191.5C 106.167,191.5 108.833,191.5 111.5,191.5C 111.5,196.833 111.5,202.167 111.5,207.5 Z"/></g>
<g><path style="opacity:1" fill="#14a02d" d="M 127.5,191.5 C 130.167,191.5 132.833,191.5 135.5,191.5C 135.5,194.167 135.5,196.833 135.5,199.5C 135.5,202.167 135.5,204.833 135.5,207.5C 132.833,207.5 130.167,207.5 127.5,207.5C 127.5,202.167 127.5,196.833 127.5,191.5 Z"/></g>
<g><path style="opacity:1" fill="#1a7a3d" d="M 143.5,191.5 C 148.833,191.5 154.167,191.5 159.5,191.5C 159.5,194.167 159.5,196.833 159.5,199.5C 156.833,199.5 154.167,199.5 151.5,199.5C 148.833,199.5 146.167,199.5 143.5,199.5C 143.5,196.833 143.5,194.167 143.5,191.5 Z"/></g>
<g><path style="opacity:1" fill="#18ba17" d="M 159.5,191.5 C 162.167,191.5 164.833,191.5 167.5,191.5C 167.5,194.167 167.5,196.833 167.5,199.5C 167.5,202.167 167.5,204.833 167.5,207.5C 164.833,207.5 162.167,207.5 159.5,207.5C 159.5,204.833 159.5,202.167 159.5,199.5C 159.5,196.833 159.5,194.167 159.5,191.5 Z"/></g>
<g><path style="opacity:1" fill="#18ba17" d="M 183.5,191.5 C 186.167,191.5 188.833,191.5 191.5,191.5C 191.5,196.833 191.5,202.167 191.5,207.5C 188.833,207.5 186.167,207.5 183.5,207.5C 183.5,202.167 183.5,196.833 183.5,191.5 Z"/></g>
<g><path style="opacity:1" fill="#1a7a3d" d="M -0.5,199.5 C 2.16667,199.5 4.83333,199.5 7.5,199.5C 7.5,202.167 7.5,204.833 7.5,207.5C 4.83333,207.5 2.16667,207.5 -0.5,207.5C -0.5,204.833 -0.5,202.167 -0.5,199.5 Z"/></g>
<g><path style="opacity:1" fill="#14a02d" d="M 7.5,199.5 C 10.1667,199.5 12.8333,199.5 15.5,199.5C 15.5,202.167 15.5,204.833 15.5,207.5C 12.8333,207.5 10.1667,207.5 7.5,207.5C 7.5,204.833 7.5,202.167 7.5,199.5 Z"/></g>
<g><path style="opacity:1" fill="#1a7a3d" d="M 15.5,199.5 C 18.1667,199.5 20.8333,199.5 23.5,199.5C 26.1667,199.5 28.8333,199.5 31.5,199.5C 31.5,202.167 31.5,204.833 31.5,207.5C 26.1667,207.5 20.8333,207.5 15.5,207.5C 15.5,204.833 15.5,202.167 15.5,199.5 Z"/></g>
<g><path style="opacity:1" fill="#4bb833" d="M 31.5,199.5 C 39.5,199.5 47.5,199.5 55.5,199.5C 55.5,202.167 55.5,204.833 55.5,207.5C 47.5,207.5 39.5,207.5 31.5,207.5C 31.5,204.833 31.5,202.167 31.5,199.5 Z"/></g>
<g><path style="opacity:1" fill="#1a7a3d" d="M 135.5,199.5 C 138.167,199.5 140.833,199.5 143.5,199.5C 143.5,202.167 143.5,204.833 143.5,207.5C 140.833,207.5 138.167,207.5 135.5,207.5C 135.5,204.833 135.5,202.167 135.5,199.5 Z"/></g>
<g><path style="opacity:1" fill="#18ba17" d="M 143.5,199.5 C 146.167,199.5 148.833,199.5 151.5,199.5C 151.5,202.167 151.5,204.833 151.5,207.5C 148.833,207.5 146.167,207.5 143.5,207.5C 143.5,204.833 143.5,202.167 143.5,199.5 Z"/></g>
<g><path style="opacity:1" fill="#14a02d" d="M 151.5,199.5 C 154.167,199.5 156.833,199.5 159.5,199.5C 159.5,202.167 159.5,204.833 159.5,207.5C 156.833,207.5 154.167,207.5 151.5,207.5C 151.5,204.833 151.5,202.167 151.5,199.5 Z"/></g>
<g><path style="opacity:1" fill="#1a7a3d" d="M 167.5,199.5 C 170.167,199.5 172.833,199.5 175.5,199.5C 175.5,202.167 175.5,204.833 175.5,207.5C 172.833,207.5 170.167,207.5 167.5,207.5C 167.5,204.833 167.5,202.167 167.5,199.5 Z"/></g>
</svg>
